<svg id="visual" viewBox="0 0 900 600" width="900" height="600" xmlns="http://www.w3.org/2000/svg" xmlns:xlink="http://www.w3.org/1999/xlink" version="1.1"><rect x="0" y="0" width="900" height="600" fill="#fff"></rect><defs><linearGradient id="grad1_0" x1="33.3%" y1="0%" x2="100%" y2="100%"><stop offset="20%" stop-color="#ffffff" stop-opacity="1"></stop><stop offset="80%" stop-color="#ffffff" stop-opacity="1"></stop></linearGradient></defs><defs><linearGradient id="grad2_0" x1="0%" y1="0%" x2="66.7%" y2="100%"><stop offset="20%" stop-color="#ffffff" stop-opacity="1"></stop><stop offset="80%" stop-color="#ffffff" stop-opacity="1"></stop></linearGradient></defs><g transform="translate(900, 0)"><path d="M0 486.7C-64.7 481.2 -129.5 475.6 -186.3 449.7C-243.1 423.8 -291.9 377.6 -328.1 328.1C-364.3 278.6 -387.7 225.9 -412.1 170.7C-436.4 115.5 -461.6 57.7 -486.7 0L0 0Z" fill="#DFDFDF"></path></g><g transform="translate(0, 600)"><path d="M0 -486.7C63 -473 126.1 -459.2 178.7 -431.5C231.3 -403.7 273.6 -362 321 -321C368.5 -280 421.2 -239.7 449.7 -186.3C478.2 -132.9 482.5 -66.4 486.7 0L0 0Z" fill="#DFDFDF"></path></g></svg>